<svg xmlns="http://www.w3.org/2000/svg" viewBox="0 0 941 1672" role="img" aria-label="Schone Aardewereld achtergrond">
<defs>
 <linearGradient id="sky" x1="0" y1="0" x2="0" y2="1"><stop stop-color="#1f74d6"/><stop offset=".48" stop-color="#56c6e7"/><stop offset="1" stop-color="#d3f4ff"/></linearGradient>
 <linearGradient id="sea" x1="0" y1="0" x2="0" y2="1"><stop stop-color="#38c6e9"/><stop offset="1" stop-color="#1472b7"/></linearGradient>
 <linearGradient id="land" x1="0" y1="0" x2="0" y2="1"><stop stop-color="#a6e86f"/><stop offset=".56" stop-color="#4ab55c"/><stop offset="1" stop-color="#287b49"/></linearGradient>
 <filter id="shadow" x="-35%" y="-35%" width="170%" height="170%"><feDropShadow dx="0" dy="15" stdDeviation="16" flood-color="#0a4a77" flood-opacity=".25"/></filter>
</defs>
<rect width="941" height="1672" fill="url(#sky)"/>
<circle cx="760" cy="190" r="105" fill="#ffe687" opacity=".84"/>
<g fill="#fff" opacity=".72"><ellipse cx="145" cy="245" rx="138" ry="42"/><ellipse cx="292" cy="205" rx="100" ry="32"/><ellipse cx="700" cy="335" rx="125" ry="38"/></g>
<path d="M0 880 C160 815 315 850 445 805 C610 750 770 790 941 720 V1672 H0Z" fill="url(#sea)"/>
<g transform="translate(470 715)" filter="url(#shadow)">
 <path d="M-325 115 C-300 -80 -135 -210 45 -195 C230 -180 340 -20 308 155 C275 335 85 390 -95 350 C-260 315 -345 260 -325 115Z" fill="url(#land)"/>
 <path d="M-250 115 L-110 -80 L-15 100 L90 -115 L225 125Z" fill="#527c67"/>
 <path d="M-157 -15 L-110 -80 L-65 -2Z" fill="#f2fbff"/><path d="M45 -55 L90 -115 L140 -35Z" fill="#f7fdff"/>
 <path d="M-250 190 C-120 120 -5 165 115 108 C205 65 265 90 305 115" fill="none" stroke="#76dcff" stroke-width="30" stroke-linecap="round"/>
 <circle cx="-190" cy="165" r="47" fill="#50c15c"/><circle cx="-135" cy="190" r="55" fill="#45ad54"/><circle cx="230" cy="170" r="52" fill="#58c35f"/>
</g>
<g transform="translate(510 1095)" filter="url(#shadow)"><circle r="178" fill="#5dd5ff" stroke="#e8fbff" stroke-width="14"/><path d="M-95 -90 C-42 -135 30 -120 55 -70 C25 -45 -10 -30 -35 18 C-78 4 -107 -35 -95 -90Z" fill="#62ca66"/><path d="M40 20 C95 -12 145 25 150 68 C115 115 58 132 4 110 C-6 70 7 42 40 20Z" fill="#61c868"/><ellipse rx="178" ry="55" fill="none" stroke="#dff9ff" stroke-width="6" opacity=".4"/></g>
<g opacity=".82" fill="#0f6f61"><path d="M0 1320 C185 1240 360 1285 520 1230 C680 1175 820 1205 941 1160 V1672 H0Z"/></g>
<g fill="#fff" opacity=".75"><circle cx="105" cy="520" r="6"/><circle cx="830" cy="575" r="7"/><circle cx="145" cy="1110" r="6"/><circle cx="820" cy="1080" r="5"/></g>
</svg>